<svg xmlns="http://www.w3.org/2000/svg" viewBox="0 0 448 512"><path fill="#FF9900" d="M257.2 162.7c-48.7 1.8-169.5 15.5-169.5 117.5 0 109.5 138.3 114 183.5 43.2 6.5 6.7 15.2 12.2 24.3 15.5v1.7c0 31.9-21.6 100.7-90.4 100.7-72.6 0-83-52.1-83-144.7 0-58.7 21.6-137.5 91.3-132-10-13.4-6.4-36.5 0-134.7 92.9 9.7 120.8 17.5 132 21.6 22.8 9.7 38.6 21.6 38.6 43.2 0 51-18 53.2-36 76-18 22.8-56.3 11.3-95.8 10.4 0 0-13.1.5-21.6 2.2-13.1 2.2-23.4 6.4-23.4 18.4v.8c0 11.3 7.5 19.7 19.7 19.7 15 0 25.2-6.7 31-13 10-10.7 53.2-64.3 70.7-65.9 22.8-2.2 23.4-6.7 31.8-3.4 5.7 2.2 5.7 11.3 5.7 22 0 19.7-12.2 100.7-45.1 100.7-31-1.3-101.6-98.4-97.4-126.9C246.7 234.7 283 201.2 283 184c0-13.1-3.3-23.4-16.4-23.4-12.2 0-27.5 33.5-27.5 53.2 0 2.2.7 13.1 2.2 19.7-67.9-8-69.2-123.4-42.5-142.4 38-32.2 98.4-20.1 130.9 2.2 21.6 15 29.9 36.5 29.9 46.1 0 13.9-13.1 29.2-24 15-10.8-13.9-25.9-13.9-34.7-13.9zm-102.9 130c3.3-13.1 22.8-36.5 27.4-20 3.3 13.1-6.7 20-27.4 20zm129.4-36c-9 16.4-43.2 65.8-50.7 65.8-3.3 0-3.9-3.9-3.9-10 0-25.2 38-61.6 54.6-61.6 3.3 0 3.3 3.9 0 5.8z"></path></svg>