<svg xmlns="http://www.w3.org/2000/svg" viewBox="0 0 448 512"><path fill="#E50914" d="M265.8 17.6c-4.8-1.6-9.9-2.4-15-2.4-24.5 0-44.4 19.9-44.4 44.4v233.5l-29-69.6c-6.2-14.9-19.7-25.6-35.9-27.6-4.8-.6-9.7-.4-14.3.7-21.6 5-35.5 26.3-30.5 47.9l73.2 314.3c2.2 9.3 8.4 17.2 17 21.5 5.2 2.6 11 3.9 16.9 3.9 5.5 0 10.9-1.1 16-3.3 9.7-4.2 17-12.1 20.3-22 2.2-6.5 2.6-13.1 1.4-19.4L230.3 512h62c4.3-6.5 7.4-13.6 9.2-21.2l22.4-96.1H397c17.6 0 32-14.4 32-32s-14.4-32-32-32h-58.7l32.9-141c3.1-13.2-3.6-26.9-15.9-32.6z"></path></svg>